
<global>
amp_veltrack=0
</global>

<group>
ampeg_release=0.35
group_label=P
loop_mode=loop_continuous
loop_xfade_curve=EqP
xf_cccurve=gain
xfout_hicc1=51
xfout_locc1=25

<region>
end=346572
hivel=127
key=A#2
loop_end=228083
loop_start=22274
loop_xfade=7818
lovel=0
sample=Timpani_tremolo_P_A#2.opus
</region>

<region>
end=303029
hivel=127
key=A2
loop_end=212633
loop_start=22413
loop_xfade=11987
lovel=0
sample=Timpani_tremolo_P_A2.opus
</region>

<region>
end=266642
hikey=c4
hivel=127
lokey=a3
loop_end=202726
loop_start=15933
loop_xfade=6128
lovel=0
pitch_keycenter=a3
sample=Timpani_tremolo_P_A3.opus
</region>

<region>
end=340814
hivel=127
key=B2
loop_end=209613
loop_start=27332
loop_xfade=12258
lovel=0
sample=Timpani_tremolo_P_B2.opus
</region>

<region>
end=370035
hivel=127
key=c#2
loop_end=236315
loop_start=25328
loop_xfade=10525
lovel=0
sample=Timpani_tremolo_P_C#2.opus
</region>

<region>
end=294723
hivel=127
key=C#3
loop_end=214980
loop_start=44704
loop_xfade=8038
lovel=0
offset=25857
sample=Timpani_tremolo_P_C#3.opus
</region>

<region>
end=349679
hivel=127
key=c2
loop_end=245725
loop_start=37059
loop_xfade=11168
lovel=0
offset=8011
sample=Timpani_tremolo_P_C2.opus
</region>

<region>
end=300682
hivel=127
key=c3
loop_end=208218
loop_start=20008
loop_xfade=8291
lovel=0
sample=Timpani_tremolo_P_C3.opus
</region>

<region>
end=375829
hivel=127
key=d#2
loop_end=242045
loop_start=31628
loop_xfade=12265
lovel=0
sample=Timpani_tremolo_P_D#2.opus
</region>

<region>
end=298227
hivel=127
key=D#3
loop_end=225073
loop_start=22512
loop_xfade=11047
lovel=0
sample=Timpani_tremolo_P_D#3.opus
</region>

<region>
end=312228
hivel=127
key=d2
loop_end=210003
loop_start=28195
loop_xfade=5164
lovel=0
offset=9071
sample=Timpani_tremolo_P_D2.opus
</region>

<region>
end=283199
hivel=127
key=d3
loop_end=207040
loop_start=21353
loop_xfade=4949
lovel=0
sample=Timpani_tremolo_P_D3.opus
</region>

<region>
end=459175
hivel=127
key=E2
loop_end=203114
loop_start=40486
loop_xfade=10402
lovel=0
sample=Timpani_tremolo_P_E2.opus
</region>

<region>
end=250317
hivel=127
key=E3
loop_end=198895
loop_start=17852
loop_xfade=4588
lovel=0
sample=Timpani_tremolo_P_E3.opus
</region>

<region>
end=397630
hivel=127
key=f#2
loop_end=208410
loop_start=35005
loop_xfade=11493
lovel=0
sample=Timpani_tremolo_P_F#2.opus
</region>

<region>
end=275573
hivel=127
key=f#3
loop_end=198205
loop_start=23515
loop_xfade=9460
lovel=0
offset=1756
sample=Timpani_tremolo_P_F#3.opus
</region>

<region>
end=411545
hivel=127
key=F2
loop_end=221392
loop_start=35351
loop_xfade=8573
lovel=0
sample=Timpani_tremolo_P_F2.opus
</region>

<region>
end=356258
hivel=127
key=f3
loop_end=206500
loop_start=17790
loop_xfade=7640
lovel=0
sample=Timpani_tremolo_P_F3.opus
</region>

<region>
end=386137
hivel=127
key=g#2
loop_end=215548
loop_start=34902
loop_xfade=17671
lovel=0
sample=Timpani_tremolo_P_G#2.opus
</region>

<region>
end=266724
hivel=127
key=g#3
loop_end=203740
loop_start=20060
loop_xfade=6905
lovel=0
offset=3290
sample=Timpani_tremolo_P_G#3.opus
</region>

<region>
end=365255
hivel=127
key=g2
loop_end=213353
loop_start=29786
loop_xfade=6511
lovel=0
sample=Timpani_tremolo_P_G2.opus
</region>

<region>
end=282213
hivel=127
key=G3
loop_end=205966
loop_start=19133
loop_xfade=6544
lovel=0
sample=Timpani_tremolo_P_G3.opus
</region>
</group>

<group>
ampeg_release=0.35
group_label=MP
loop_mode=loop_continuous
loop_xfade_curve=EqP
xf_cccurve=gain
xfin_hicc1=51
xfin_locc1=25
xfout_hicc1=76
xfout_locc1=51

<region>
end=325347
hivel=127
key=A#2
loop_end=197127
loop_start=20801
loop_xfade=9669
lovel=0
sample=Timpani_tremolo_MP_A#2.opus
</region>

<region>
end=279502
hivel=127
key=A2
loop_end=192902
loop_start=26429
loop_xfade=8837
lovel=0
sample=Timpani_tremolo_MP_A2.opus
</region>

<region>
hikey=c4
hivel=127
lokey=a3
loop_end=198394
loop_start=19384
loop_xfade=10338
lovel=0
pitch_keycenter=a3
sample=Timpani_tremolo_MP_A3.opus
</region>

<region>
end=366551
hivel=127
key=B2
loop_end=193565
loop_start=35239
lovel=0
sample=Timpani_tremolo_MP_B2.opus
</region>

<region>
end=351622
hivel=127
key=C#2
loop_end=204624
loop_start=32984
loop_xfade=12558
lovel=0
sample=Timpani_tremolo_MP_C#2.opus
</region>

<region>
end=265425
hivel=127
key=C#3
loop_end=194732
loop_start=23737
loop_xfade=10640
lovel=0
sample=Timpani_tremolo_MP_C#3.opus
</region>

<region>
end=439521
hivel=127
key=C2
loop_end=195318
loop_start=41018
loop_xfade=14318
lovel=0
sample=Timpani_tremolo_MP_C2.opus
</region>

<region>
end=326666
hivel=127
key=C3
loop_end=196077
loop_start=28103
loop_xfade=15046
lovel=0
sample=Timpani_tremolo_MP_C3.opus
</region>

<region>
end=469269
hivel=127
key=D#2
loop_end=202824
loop_start=41714
loop_xfade=8608
lovel=0
sample=Timpani_tremolo_MP_D#2.opus
</region>

<region>
end=291241
hivel=127
key=D#3
loop_end=209023
loop_start=27255
loop_xfade=11152
lovel=0
sample=Timpani_tremolo_MP_D#3.opus
</region>

<region>
end=427802
hivel=127
key=D2
loop_end=194662
loop_start=36231
loop_xfade=6518
lovel=0
sample=Timpani_tremolo_MP_D2.opus
</region>

<region>
end=311825
hivel=127
key=D3
loop_end=199639
loop_start=21944
loop_xfade=7524
lovel=0
sample=Timpani_tremolo_MP_D3.opus
</region>

<region>
end=369703
hivel=127
key=E2
loop_end=209727
loop_start=47252
loop_xfade=12159
lovel=0
sample=Timpani_tremolo_MP_E2.opus
</region>

<region>
end=234976
hivel=127
key=E3
loop_end=190279
loop_start=24330
loop_xfade=10902
lovel=0
sample=Timpani_tremolo_MP_E3.opus
</region>

<region>
end=384513
hivel=127
key=F#2
loop_end=199774
loop_start=42182
loop_xfade=16119
lovel=0
sample=Timpani_tremolo_MP_F#2.opus
</region>

<region>
end=254120
hivel=127
key=F#3
loop_end=188260
loop_start=26358
loop_xfade=14179
lovel=0
sample=Timpani_tremolo_MP_F#3.opus
</region>

<region>
end=405011
hivel=127
key=F2
loop_end=191862
loop_start=29808
loop_xfade=12694
lovel=0
sample=Timpani_tremolo_MP_F2.opus
</region>

<region>
end=303154
hivel=127
key=F3
loop_end=194091
loop_start=21298
loop_xfade=8021
lovel=0
sample=Timpani_tremolo_MP_F3.opus
</region>

<region>
end=389959
hivel=127
key=G#2
loop_end=200912
loop_start=41014
loop_xfade=18289
lovel=0
sample=Timpani_tremolo_MP_G#2.opus
</region>

<region>
end=295351
hivel=127
key=G#3
loop_end=185773
loop_start=26008
loop_xfade=6516
lovel=0
sample=Timpani_tremolo_MP_G#3.opus
</region>

<region>
end=450471
hivel=127
key=G2
loop_end=258322
loop_start=23648
loop_xfade=9412
lovel=0
sample=Timpani_tremolo_MP_G2.opus
</region>

<region>
hivel=127
key=G3
loop_end=205993
loop_start=15618
loop_xfade=8780
lovel=0
sample=Timpani_tremolo_MP_G3.opus
</region>
</group>

<group>
ampeg_release=0.35
group_label=MF
loop_mode=loop_continuous
loop_xfade_curve=EqP
xf_cccurve=gain
xfin_hicc1=76
xfin_locc1=51
xfout_hicc1=102
xfout_locc1=76

<region>
hivel=127
key=A#2
loop_end=192652
loop_start=16317
loop_xfade=9125
lovel=0
sample=Timpani_tremolo_MF_A#2.opus
</region>

<region>
hivel=127
key=A2
loop_end=191599
loop_start=21217
loop_xfade=10656
lovel=0
sample=Timpani_tremolo_MF_A2.opus
</region>

<region>
hikey=c4
hivel=127
lokey=a3
loop_end=194805
loop_start=16072
loop_xfade=6835
lovel=0
pitch_keycenter=a3
sample=Timpani_tremolo_MF_A3.opus
</region>

<region>
hivel=127
key=B2
loop_end=202871
loop_start=25042
loop_xfade=6701
lovel=0
sample=Timpani_tremolo_MF_B2.opus
</region>

<region>
hivel=127
key=c2
loop_end=188506
loop_start=22962
loop_xfade=9131
lovel=0
sample=Timpani_tremolo_MF_C#2.opus
</region>

<region>
hivel=127
key=C#3
loop_end=193255
loop_start=16277
loop_xfade=10123
lovel=0
sample=Timpani_tremolo_MF_C#3.opus
</region>

<region>
hivel=127
key=c#2
loop_end=198384
loop_start=24314
loop_xfade=9856
lovel=0
sample=Timpani_tremolo_MF_C2.opus
</region>

<region>
hivel=127
key=C3
loop_end=201128
loop_start=31439
loop_xfade=12729
lovel=0
sample=Timpani_tremolo_MF_C3.opus
</region>

<region>
hivel=127
key=D#2
loop_end=202319
loop_start=26372
loop_xfade=12717
lovel=0
sample=Timpani_tremolo_MF_D#2.opus
</region>

<region>
hivel=127
key=D#3
loop_end=195574
loop_start=21226
loop_xfade=8593
lovel=0
sample=Timpani_tremolo_MF_D#3.opus
</region>

<region>
hivel=127
key=D2
loop_end=202971
loop_start=28639
loop_xfade=14434
lovel=0
sample=Timpani_tremolo_MF_D2.opus
</region>

<region>
hivel=127
key=D3
loop_end=204932
loop_start=23967
loop_xfade=13676
lovel=0
sample=Timpani_tremolo_MF_D3.opus
</region>

<region>
hivel=127
key=E2
loop_end=204628
loop_start=26680
loop_xfade=12870
lovel=0
sample=Timpani_tremolo_MF_E2.opus
</region>

<region>
hivel=127
key=E3
loop_end=190612
loop_start=16282
loop_xfade=8153
lovel=0
sample=Timpani_tremolo_MF_E3.opus
</region>

<region>
hivel=127
key=F#2
loop_end=207256
loop_start=23883
loop_xfade=13634
lovel=0
sample=Timpani_tremolo_MF_F#2.opus
</region>

<region>
hivel=127
key=F#3
loop_end=200721
loop_start=20225
loop_xfade=7553
lovel=0
sample=Timpani_tremolo_MF_F#3.opus
</region>

<region>
hivel=127
key=F2
loop_end=197318
loop_start=25591
loop_xfade=10228
lovel=0
sample=Timpani_tremolo_MF_F2.opus
</region>

<region>
hivel=127
key=F3
loop_end=203481
loop_start=19901
loop_xfade=9444
lovel=0
sample=Timpani_tremolo_MF_F3.opus
</region>

<region>
hivel=127
key=G#2
loop_end=207203
loop_start=24221
loop_xfade=12917
lovel=0
sample=Timpani_tremolo_MF_G#2.opus
</region>

<region>
hivel=127
key=G#3
loop_end=203044
loop_start=19336
loop_xfade=8454
lovel=0
sample=Timpani_tremolo_MF_G#3.opus
</region>

<region>
hivel=127
key=G2
loop_end=202829
loop_start=21878
loop_xfade=11069
lovel=0
sample=Timpani_tremolo_MF_G2.opus
</region>

<region>
hivel=127
key=G3
loop_end=187860
loop_start=19321
loop_xfade=9072
lovel=0
sample=Timpani_tremolo_MF_G3.opus
</region>
</group>

<group>
ampeg_release=0.35
group_label=F
loop_mode=loop_continuous
loop_xfade_curve=EqP
xf_cccurve=gain
xfin_hicc1=102
xfin_locc1=76
xfout_hicc1=127
xfout_locc1=102

<region>
hivel=127
key=A#2
loop_end=187908
loop_start=23523
loop_xfade=7531
lovel=0
sample=Timpani_tremolo_F_A#2.opus
</region>

<region>
hivel=127
key=A2
loop_end=189771
loop_start=21081
loop_xfade=7844
lovel=0
sample=Timpani_tremolo_F_A2.opus
</region>

<region>
hikey=c4
hivel=127
lokey=a3
loop_end=191323
loop_start=22026
loop_xfade=5681
lovel=0
pitch_keycenter=a3
sample=Timpani_tremolo_F_A3.opus
</region>

<region>
hivel=127
key=B2
loop_end=247145
loop_start=19478
loop_xfade=5572
lovel=0
sample=Timpani_tremolo_F_B2.opus
</region>

<region>
end=412644
hivel=127
key=C#2
loop_end=204070
loop_start=31780
loop_xfade=31780
lovel=0
sample=Timpani_tremolo_F_C#2.opus
</region>

<region>
hivel=127
key=C#3
loop_end=183882
loop_start=20368
loop_xfade=7961
lovel=0
sample=Timpani_tremolo_F_C#3.opus
</region>

<region>
hivel=127
key=C2
loop_end=198915
loop_start=23541
loop_xfade=10399
lovel=0
sample=Timpani_tremolo_F_C2.opus
</region>

<region>
hivel=127
key=C3
loop_end=191904
loop_start=15942
loop_xfade=5498
lovel=0
sample=Timpani_tremolo_F_C3.opus
</region>

<region>
hivel=127
key=D#2
loop_end=200902
loop_start=23218
loop_xfade=11122
lovel=0
sample=Timpani_tremolo_F_D#2.opus
</region>

<region>
hivel=127
key=D#3
loop_end=193918
loop_start=15117
loop_xfade=4701
lovel=0
sample=Timpani_tremolo_F_D#3.opus
</region>

<region>
hivel=127
key=D2
loop_end=207220
loop_start=36113
loop_xfade=22061
lovel=0
sample=Timpani_tremolo_F_D2.opus
</region>

<region>
hivel=127
key=D3
loop_end=197553
loop_start=14006
loop_xfade=2616
lovel=0
sample=Timpani_tremolo_F_D3.opus
</region>

<region>
hivel=127
key=E2
loop_end=225567
loop_start=20474
loop_xfade=9777
lovel=0
sample=Timpani_tremolo_F_E2.opus
</region>

<region>
hivel=127
key=E3
loop_end=192557
loop_start=17480
loop_xfade=10245
lovel=0
sample=Timpani_tremolo_F_E3.opus
</region>

<region>
hivel=127
key=F#2
loop_end=192239
loop_start=50783
loop_xfade=18248
lovel=0
sample=Timpani_tremolo_F_F#2.opus
</region>

<region>
hivel=127
key=F#3
loop_end=176187
loop_start=22757
loop_xfade=5220
lovel=0
sample=Timpani_tremolo_F_F#3.opus
</region>

<region>
hivel=127
key=F2
loop_end=204185
loop_start=27470
loop_xfade=7975
lovel=0
sample=Timpani_tremolo_F_F2.opus
</region>

<region>
hivel=127
key=F3
loop_end=197898
loop_start=17148
loop_xfade=8836
lovel=0
sample=Timpani_tremolo_F_F3.opus
</region>

<region>
hivel=127
key=G#2
loop_end=186246
loop_start=24851
loop_xfade=6203
lovel=0
sample=Timpani_tremolo_F_G#2.opus
</region>

<region>
hivel=127
key=G#3
loop_end=195471
loop_start=12227
loop_xfade=5753
lovel=0
sample=Timpani_tremolo_F_G#3.opus
</region>

<region>
hivel=127
key=G2
loop_end=204963
loop_start=28777
loop_xfade=14284
lovel=0
sample=Timpani_tremolo_F_G2.opus
</region>

<region>
hivel=127
key=G3
loop_end=200366
loop_start=29049
loop_xfade=11130
lovel=0
sample=Timpani_tremolo_F_G3.opus
</region>
</group>

<group>
ampeg_release=0.35
group_label=FF
loop_mode=loop_continuous
loop_xfade_curve=EqP
xf_cccurve=gain
xfin_hicc1=127
xfin_locc1=102
xfout_hicc1=127
xfout_locc1=127

<region>
hivel=127
key=A#2
loop_end=198619
loop_start=25064
loop_xfade=9200
lovel=0
sample=Timpani_tremolo_FF_A#2.opus
</region>

<region>
hivel=127
key=A2
loop_end=196110
loop_start=23952
loop_xfade=8081
lovel=0
sample=Timpani_tremolo_FF_A2.opus
</region>

<region>
hikey=c4
hivel=127
lokey=a3
loop_end=190927
loop_start=16563
loop_xfade=3338
lovel=0
pitch_keycenter=a3
sample=Timpani_tremolo_FF_A3.opus
</region>

<region>
hivel=127
key=B2
loop_end=189817
loop_start=19527
loop_xfade=6635
lovel=0
sample=Timpani_tremolo_FF_B2.opus
</region>

<region>
hivel=127
key=C#2
loop_end=197007
loop_start=15595
loop_xfade=7387
lovel=0
sample=Timpani_tremolo_FF_C#2.opus
</region>

<region>
hivel=127
key=C#3
loop_end=182866
loop_start=24427
loop_xfade=8670
lovel=0
sample=Timpani_tremolo_FF_C#3.opus
</region>

<region>
hivel=127
key=C2
loop_end=197061
loop_start=15361
loop_xfade=6468
lovel=0
sample=Timpani_tremolo_FF_C2.opus
</region>

<region>
hivel=127
key=C3
loop_end=190763
loop_start=26085
loop_xfade=5081
lovel=0
sample=Timpani_tremolo_FF_C3.opus
</region>

<region>
hivel=127
key=D#2
loop_end=191616
loop_start=15191
loop_xfade=6678
lovel=0
sample=Timpani_tremolo_FF_D#2.opus
</region>

<region>
hivel=127
key=D#3
loop_end=184011
loop_start=22561
loop_xfade=4032
lovel=0
sample=Timpani_tremolo_FF_D#3.opus
</region>

<region>
hivel=127
key=D2
loop_end=185808
loop_start=20085
loop_xfade=10233
lovel=0
sample=Timpani_tremolo_FF_D2.opus
</region>

<region>
hivel=127
key=D3
loop_end=178374
loop_start=19063
loop_xfade=6815
lovel=0
sample=Timpani_tremolo_FF_D3.opus
</region>

<region>
hivel=127
key=E2
loop_end=186946
loop_start=20123
loop_xfade=10518
lovel=0
sample=Timpani_tremolo_FF_E2.opus
</region>

<region>
hivel=127
key=E3
loop_end=187727
loop_start=19345
loop_xfade=6012
lovel=0
sample=Timpani_tremolo_FF_E3.opus
</region>

<region>
hivel=127
key=F#2
loop_end=193548
loop_start=22391
loop_xfade=5800
lovel=0
sample=Timpani_tremolo_FF_F#2.opus
</region>

<region>
hivel=127
key=F#3
loop_end=193822
loop_start=17556
loop_xfade=2179
lovel=0
sample=Timpani_tremolo_FF_F#3.opus
</region>

<region>
hivel=127
key=F2
loop_end=199399
loop_start=30699
loop_xfade=10831
lovel=0
sample=Timpani_tremolo_FF_F2.opus
</region>

<region>
hivel=127
key=F3
loop_end=188617
loop_start=19868
loop_xfade=5355
lovel=0
sample=Timpani_tremolo_FF_F3.opus
</region>

<region>
hivel=127
key=G#2
loop_end=199600
loop_start=22865
loop_xfade=5815
lovel=0
sample=Timpani_tremolo_FF_G#2.opus
</region>

<region>
hivel=127
key=G#3
loop_end=184940
loop_start=19735
loop_xfade=5307
lovel=0
sample=Timpani_tremolo_FF_G#3.opus
</region>

<region>
hivel=127
key=G2
loop_end=192267
loop_start=23572
loop_xfade=7841
lovel=0
sample=Timpani_tremolo_FF_G2.opus
</region>

<region>
hivel=127
key=G3
loop_end=187968
loop_start=13817
loop_xfade=1812
lovel=0
sample=Timpani_tremolo_FF_G3.opus
</region>
</group>

<group>
ampeg_attack=0.01
ampeg_release=8.00
group_label=P_Rel
rt_decay=0.000000
trigger=release
xf_cccurve=gain
xfout_hicc1=51
xfout_locc1=25

<region>
end=454186
hivel=127
key=A#2
lovel=0
offset=197364
sample=Timpani_tremolo_P_A#2.opus
</region>

<region>
hivel=127
key=A2
lovel=0
offset=199619
sample=Timpani_tremolo_P_A2.opus
</region>

<region>
end=284671
hikey=c4
hivel=127
lokey=a3
lovel=0
offset=205824
pitch_keycenter=a3
sample=Timpani_tremolo_P_A3.opus
</region>

<region>
end=348246
hivel=127
key=B2
lovel=0
offset=194646
sample=Timpani_tremolo_P_B2.opus
</region>

<region>
hivel=127
key=C#2
lovel=0
offset=204715
sample=Timpani_tremolo_P_C#2.opus
</region>

<region>
end=363520
hivel=127
key=C#3
lovel=0
offset=227329
sample=Timpani_tremolo_P_C#3.opus
</region>

<region>
hivel=127
key=c2
lovel=0
offset=217646
sample=Timpani_tremolo_P_C2.opus
</region>

<region>
end=382974
hivel=127
key=C3
lovel=0
offset=206585
sample=Timpani_tremolo_P_C3.opus
</region>

<region>
hivel=127
key=D#2
lovel=0
offset=214789
sample=Timpani_tremolo_P_D#2.opus
</region>

<region>
end=371504
hivel=127
key=D#3
lovel=0
offset=200497
sample=Timpani_tremolo_P_D#3.opus
</region>

<region>
hivel=127
key=D2
lovel=0
offset=206979
sample=Timpani_tremolo_P_D2.opus
</region>

<region>
end=303105
hivel=127
key=D3
lovel=0
offset=194626
sample=Timpani_tremolo_P_D3.opus
</region>

<region>
hivel=127
key=E2
lovel=0
offset=202158
sample=Timpani_tremolo_P_E2.opus
</region>

<region>
end=300032
hivel=127
key=E3
lovel=0
offset=200704
sample=Timpani_tremolo_P_E3.opus
</region>

<region>
hivel=127
key=F#2
lovel=0
offset=205772
sample=Timpani_tremolo_P_F#2.opus
</region>

<region>
end=292864
hivel=127
key=F#3
lovel=0
offset=196607
sample=Timpani_tremolo_P_F#3.opus
</region>

<region>
hivel=127
key=F2
lovel=0
offset=208134
sample=Timpani_tremolo_P_F2.opus
</region>

<region>
end=331776
hivel=127
key=f3
lovel=0
offset=203776
sample=Timpani_tremolo_P_F3.opus
</region>

<region>
hivel=127
key=G#2
lovel=0
offset=217088
sample=Timpani_tremolo_P_G#2.opus
</region>

<region>
end=319487
hivel=127
key=G#3
lovel=0
offset=194560
sample=Timpani_tremolo_P_G#3.opus
</region>

<region>
hivel=127
key=G2
lovel=0
offset=208806
sample=Timpani_tremolo_P_G2.opus
</region>

<region>
end=303104
hivel=127
key=G3
lovel=0
offset=201727
sample=Timpani_tremolo_P_G3.opus
</region>
</group>

<group>
ampeg_attack=0.01
ampeg_release=8.00
group_label=MP_Rel
rt_decay=0.000000
trigger=release
xf_cccurve=gain
xfin_hicc1=51
xfin_locc1=25
xfout_hicc1=76
xfout_locc1=51

<region>
end=397321
hivel=127
key=A#2
lovel=0
offset=196615
sample=Timpani_tremolo_MP_A#2.opus
</region>

<region>
end=502419
hivel=127
key=A2
lovel=0
offset=202223
sample=Timpani_tremolo_MP_A2.opus
</region>

<region>
hikey=c4
hivel=127
lokey=a3
lovel=0
offset=199664
pitch_keycenter=a3
sample=Timpani_tremolo_MP_A3.opus
</region>

<region>
end=458001
hivel=127
key=B2
lovel=0
offset=205219
sample=Timpani_tremolo_MP_B2.opus
</region>

<region>
end=418816
hivel=127
key=C#2
lovel=0
offset=194560
sample=Timpani_tremolo_MP_C#2.opus
</region>

<region>
end=346112
hivel=127
key=C#3
lovel=0
offset=198655
sample=Timpani_tremolo_MP_C#3.opus
</region>

<region>
end=471339
hivel=127
key=C2
lovel=0
offset=202026
sample=Timpani_tremolo_MP_C2.opus
</region>

<region>
end=372736
hivel=127
key=C3
lovel=0
offset=201951
sample=Timpani_tremolo_MP_C3.opus
</region>

<region>
end=358400
hivel=127
key=D#2
lovel=0
offset=198515
sample=Timpani_tremolo_MP_D#2.opus
</region>

<region>
end=375074
hivel=127
key=D#3
lovel=0
offset=191495
sample=Timpani_tremolo_MP_D#3.opus
</region>

<region>
end=412672
hivel=127
key=D2
lovel=0
offset=197632
sample=Timpani_tremolo_MP_D2.opus
</region>

<region>
end=367044
hivel=127
key=D3
lovel=0
offset=192240
sample=Timpani_tremolo_MP_D3.opus
</region>

<region>
end=535172
hivel=127
key=E2
lovel=0
offset=199333
sample=Timpani_tremolo_MP_E2.opus
</region>

<region>
end=318903
hivel=127
key=E3
lovel=0
offset=194383
sample=Timpani_tremolo_MP_E3.opus
</region>

<region>
end=591166
hivel=127
key=F#2
lovel=0
offset=194117
sample=Timpani_tremolo_MP_F#2.opus
</region>

<region>
end=366591
hivel=127
key=F#3
lovel=0
offset=189645
sample=Timpani_tremolo_MP_F#3.opus
</region>

<region>
end=520368
hivel=127
key=F2
lovel=0
offset=190286
sample=Timpani_tremolo_MP_F2.opus
</region>

<region>
end=396437
hivel=127
key=F3
lovel=0
offset=201727
sample=Timpani_tremolo_MP_F3.opus
</region>

<region>
end=464979
hivel=127
key=G#2
lovel=0
offset=205331
sample=Timpani_tremolo_MP_G#2.opus
</region>

<region>
end=395260
hivel=127
key=G#3
lovel=0
offset=192700
sample=Timpani_tremolo_MP_G#3.opus
</region>

<region>
end=538372
hivel=127
key=G2
lovel=0
offset=263611
sample=Timpani_tremolo_MP_G2.opus
</region>

<region>
hivel=127
key=G3
lovel=0
offset=198810
sample=Timpani_tremolo_MP_G3.opus
</region>
</group>

<group>
ampeg_attack=0.01
ampeg_release=8.00
group_label=MF_Rel
rt_decay=0.000000
trigger=release
xf_cccurve=gain
xfin_hicc1=76
xfin_locc1=51
xfout_hicc1=102
xfout_locc1=76

<region>
hivel=127
key=A#2
lovel=0
offset=194500
sample=Timpani_tremolo_MF_A#2.opus
</region>

<region>
hivel=127
key=A2
lovel=0
offset=190334
sample=Timpani_tremolo_MF_A2.opus
</region>

<region>
hikey=c4
hivel=127
lokey=a3
lovel=0
offset=183143
pitch_keycenter=a3
sample=Timpani_tremolo_MF_A3.opus
</region>

<region>
hivel=127
key=B2
lovel=0
offset=198425
sample=Timpani_tremolo_MF_B2.opus
</region>

<region>
hivel=127
key=C#2
lovel=0
offset=195226
sample=Timpani_tremolo_MF_C#2.opus
</region>

<region>
hivel=127
key=C#3
lovel=0
offset=187860
sample=Timpani_tremolo_MF_C#3.opus
</region>

<region>
hivel=127
key=C2
lovel=0
offset=199401
sample=Timpani_tremolo_MF_C2.opus
</region>

<region>
hivel=127
key=C3
lovel=0
offset=192079
sample=Timpani_tremolo_MF_C3.opus
</region>

<region>
hivel=127
key=D#2
lovel=0
offset=192923
sample=Timpani_tremolo_MF_D#2.opus
</region>

<region>
hivel=127
key=D#3
lovel=0
offset=197137
sample=Timpani_tremolo_MF_D#3.opus
</region>

<region>
hivel=127
key=D2
lovel=0
offset=204509
sample=Timpani_tremolo_MF_D2.opus
</region>

<region>
hivel=127
key=D3
lovel=0
offset=200498
sample=Timpani_tremolo_MF_D3.opus
</region>

<region>
end=438759
hivel=127
key=E2
lovel=0
offset=195248
sample=Timpani_tremolo_MF_E2.opus
</region>

<region>
hivel=127
key=E3
lovel=0
offset=194295
sample=Timpani_tremolo_MF_E3.opus
</region>

<region>
hivel=127
key=F#2
lovel=0
offset=194575
sample=Timpani_tremolo_MF_F#2.opus
</region>

<region>
hivel=127
key=F#3
lovel=0
offset=191050
sample=Timpani_tremolo_MF_F#3.opus
</region>

<region>
hivel=127
key=F2
lovel=0
offset=182632
sample=Timpani_tremolo_MF_F2.opus
</region>

<region>
hivel=127
key=F3
lovel=0
offset=191216
sample=Timpani_tremolo_MF_F3.opus
</region>

<region>
hivel=127
key=G#2
lovel=0
offset=199729
sample=Timpani_tremolo_MF_G#2.opus
</region>

<region>
hivel=127
key=G#3
lovel=0
offset=193814
sample=Timpani_tremolo_MF_G#3.opus
</region>

<region>
hivel=127
key=G2
lovel=0
offset=195470
sample=Timpani_tremolo_MF_G2.opus
</region>

<region>
hivel=127
key=G3
lovel=0
offset=186710
sample=Timpani_tremolo_MF_G3.opus
</region>
</group>

<group>
ampeg_attack=0.01
ampeg_release=8.00
group_label=F_Rel
rt_decay=0.000000
trigger=release
xf_cccurve=gain
xfin_hicc1=102
xfin_locc1=76
xfout_hicc1=127
xfout_locc1=102

<region>
hivel=127
key=A#2
lovel=0
offset=201198
sample=Timpani_tremolo_F_A#2.opus
</region>

<region>
hivel=127
key=A2
lovel=0
offset=191276
sample=Timpani_tremolo_F_A2.opus
</region>

<region>
hikey=c4
hivel=127
lokey=a3
lovel=0
offset=191665
pitch_keycenter=a3
sample=Timpani_tremolo_F_A3.opus
</region>

<region>
hivel=127
key=B2
lovel=0
offset=251252
sample=Timpani_tremolo_F_B2.opus
</region>

<region>
end=616149
hivel=127
key=C#2
lovel=0
offset=188255
sample=Timpani_tremolo_F_C#2.opus
</region>

<region>
hivel=127
key=C#3
lovel=0
offset=185975
sample=Timpani_tremolo_F_C#3.opus
</region>

<region>
hivel=127
key=C2
lovel=0
offset=192751
sample=Timpani_tremolo_F_C2.opus
</region>

<region>
hivel=127
key=C3
lovel=0
offset=193881
sample=Timpani_tremolo_F_C3.opus
</region>

<region>
hivel=127
key=D#2
lovel=0
offset=200273
sample=Timpani_tremolo_F_D#2.opus
</region>

<region>
hivel=127
key=D#3
lovel=0
offset=199218
sample=Timpani_tremolo_F_D#3.opus
</region>

<region>
hivel=127
key=D2
lovel=0
offset=193682
sample=Timpani_tremolo_F_D2.opus
</region>

<region>
hivel=127
key=D3
lovel=0
offset=199904
sample=Timpani_tremolo_F_D3.opus
</region>

<region>
hivel=127
key=E2
lovel=0
offset=210558
sample=Timpani_tremolo_F_E2.opus
</region>

<region>
hivel=127
key=E3
lovel=0
offset=196076
sample=Timpani_tremolo_F_E3.opus
</region>

<region>
hivel=127
key=F#2
lovel=0
offset=200176
sample=Timpani_tremolo_F_F#2.opus
</region>

<region>
hivel=127
key=F#3
lovel=0
offset=190866
sample=Timpani_tremolo_F_F#3.opus
</region>

<region>
hivel=127
key=F2
lovel=0
offset=199886
sample=Timpani_tremolo_F_F2.opus
</region>

<region>
hivel=127
key=F3
lovel=0
offset=198961
sample=Timpani_tremolo_F_F3.opus
</region>

<region>
hivel=127
key=G#2
lovel=0
offset=197102
sample=Timpani_tremolo_F_G#2.opus
</region>

<region>
hivel=127
key=G#3
lovel=0
offset=195374
sample=Timpani_tremolo_F_G#3.opus
</region>

<region>
hivel=127
key=G2
lovel=0
offset=210545
sample=Timpani_tremolo_F_G2.opus
</region>

<region>
hivel=127
key=G3
lovel=0
offset=203642
sample=Timpani_tremolo_F_G3.opus
</region>
</group>

<group>
ampeg_attack=0.01
ampeg_release=8.00
group_label=FF_Rel
rt_decay=0.000000
trigger=release
xf_cccurve=gain
xfin_hicc1=127
xfin_locc1=102
xfout_hicc1=127
xfout_locc1=127

<region>
hivel=127
key=A#2
lovel=0
offset=196203
sample=Timpani_tremolo_FF_A#2.opus
</region>

<region>
hivel=127
key=A2
lovel=0
offset=197644
sample=Timpani_tremolo_FF_A2.opus
</region>

<region>
hikey=c4
hivel=127
lokey=a3
lovel=0
offset=203792
pitch_keycenter=a3
sample=Timpani_tremolo_FF_A3.opus
</region>

<region>
hivel=127
key=B2
lovel=0
offset=194528
sample=Timpani_tremolo_FF_B2.opus
</region>

<region>
hivel=127
key=C#2
lovel=0
offset=199901
sample=Timpani_tremolo_FF_C#2.opus
</region>

<region>
hivel=127
key=C#3
lovel=0
offset=195256
sample=Timpani_tremolo_FF_C#3.opus
</region>

<region>
hivel=127
key=c2
lovel=0
offset=201130
sample=Timpani_tremolo_FF_C2.opus
</region>

<region>
hivel=127
key=C3
lovel=0
offset=198384
sample=Timpani_tremolo_FF_C3.opus
</region>

<region>
hivel=127
key=D#2
lovel=0
offset=185827
sample=Timpani_tremolo_FF_D#2.opus
</region>

<region>
hivel=127
key=D#3
lovel=0
offset=196368
sample=Timpani_tremolo_FF_D#3.opus
</region>

<region>
hivel=127
key=D2
lovel=0
offset=192547
sample=Timpani_tremolo_FF_D2.opus
</region>

<region>
hivel=127
key=D3
lovel=0
offset=193727
sample=Timpani_tremolo_FF_D3.opus
</region>

<region>
hivel=127
key=E2
lovel=0
offset=187755
sample=Timpani_tremolo_FF_E2.opus
</region>

<region>
hivel=127
key=E3
lovel=0
offset=206641
sample=Timpani_tremolo_FF_E3.opus
</region>

<region>
hivel=127
key=F#2
lovel=0
offset=202858
sample=Timpani_tremolo_FF_F#2.opus
</region>

<region>
hivel=127
key=F#3
lovel=0
offset=199120
sample=Timpani_tremolo_FF_F#3.opus
</region>

<region>
hivel=127
key=F2
lovel=0
offset=200805
sample=Timpani_tremolo_FF_F2.opus
</region>

<region>
hivel=127
key=F3
lovel=0
offset=198107
sample=Timpani_tremolo_FF_F3.opus
</region>

<region>
hivel=127
key=G#2
lovel=0
offset=198933
sample=Timpani_tremolo_FF_G#2.opus
</region>

<region>
hivel=127
key=G#3
lovel=0
offset=199670
sample=Timpani_tremolo_FF_G#3.opus
</region>

<region>
hivel=127
key=G2
lovel=0
offset=199469
sample=Timpani_tremolo_FF_G2.opus
</region>

<region>
hivel=127
key=G3
lovel=0
offset=201050
sample=Timpani_tremolo_FF_G3.opus
</region>
</group>
